<mxfile host="app.diagrams.net" modified="2022-04-19T09:50:13.421Z" agent="5.0 (Windows NT 10.0; Win64; x64) AppleWebKit/537.36 (KHTML, like Gecko) Chrome/100.0.4896.127 Safari/537.36" etag="2GypdDFJmSH7XZltZHAW" version="17.4.5" type="github">
  <diagram id="XCcEVGadeJu9H_untnYK" name="Page-1">
    <mxGraphModel dx="1038" dy="539" grid="1" gridSize="10" guides="1" tooltips="1" connect="1" arrows="1" fold="1" page="1" pageScale="1" pageWidth="827" pageHeight="1169" math="0" shadow="0">
      <root>
        <mxCell id="0" />
        <mxCell id="1" parent="0" />
        <mxCell id="a7h6HVVB1dvzdbMrAwMY-1" value="Docent" style="shape=umlActor;verticalLabelPosition=bottom;verticalAlign=top;html=1;outlineConnect=0;" vertex="1" parent="1">
          <mxGeometry x="60" y="180" width="60" height="120" as="geometry" />
        </mxCell>
        <mxCell id="a7h6HVVB1dvzdbMrAwMY-3" value="1. Reservering-&lt;br&gt;geschiedenis en de&lt;br&gt;actuele reservering" style="ellipse;whiteSpace=wrap;html=1;" vertex="1" parent="1">
          <mxGeometry x="400" y="40" width="120" height="80" as="geometry" />
        </mxCell>
        <mxCell id="a7h6HVVB1dvzdbMrAwMY-4" value="" style="endArrow=none;html=1;rounded=0;entryX=0;entryY=0.625;entryDx=0;entryDy=0;entryPerimeter=0;" edge="1" parent="1" target="a7h6HVVB1dvzdbMrAwMY-3">
          <mxGeometry width="50" height="50" relative="1" as="geometry">
            <mxPoint x="100" y="220" as="sourcePoint" />
            <mxPoint x="290" y="90" as="targetPoint" />
          </mxGeometry>
        </mxCell>
        <mxCell id="a7h6HVVB1dvzdbMrAwMY-6" value="2. Maximaal 4 iCT item&lt;br&gt;lenen voor 2 weken" style="ellipse;whiteSpace=wrap;html=1;" vertex="1" parent="1">
          <mxGeometry x="400" y="130" width="120" height="80" as="geometry" />
        </mxCell>
        <mxCell id="a7h6HVVB1dvzdbMrAwMY-7" value="" style="endArrow=none;html=1;rounded=0;entryX=0;entryY=0.5;entryDx=0;entryDy=0;" edge="1" parent="1" target="a7h6HVVB1dvzdbMrAwMY-6">
          <mxGeometry width="50" height="50" relative="1" as="geometry">
            <mxPoint x="110" y="220" as="sourcePoint" />
            <mxPoint x="190" y="180" as="targetPoint" />
          </mxGeometry>
        </mxCell>
        <mxCell id="a7h6HVVB1dvzdbMrAwMY-8" value="&amp;nbsp; &amp;nbsp; 3. ICT item ophalen op&amp;nbsp;&lt;br&gt;de gereserveerde&amp;nbsp;&lt;br&gt;datum." style="ellipse;whiteSpace=wrap;html=1;" vertex="1" parent="1">
          <mxGeometry x="400" y="220" width="120" height="80" as="geometry" />
        </mxCell>
        <mxCell id="a7h6HVVB1dvzdbMrAwMY-9" value="" style="endArrow=none;html=1;rounded=0;entryX=0;entryY=0;entryDx=0;entryDy=0;exitX=0.5;exitY=0.5;exitDx=0;exitDy=0;exitPerimeter=0;" edge="1" parent="1" source="a7h6HVVB1dvzdbMrAwMY-1" target="a7h6HVVB1dvzdbMrAwMY-8">
          <mxGeometry width="50" height="50" relative="1" as="geometry">
            <mxPoint x="250" y="270" as="sourcePoint" />
            <mxPoint x="300" y="220" as="targetPoint" />
          </mxGeometry>
        </mxCell>
        <mxCell id="a7h6HVVB1dvzdbMrAwMY-10" value="4. Items kan bij de&lt;br&gt;balie gebracht worden" style="ellipse;whiteSpace=wrap;html=1;" vertex="1" parent="1">
          <mxGeometry x="400" y="310" width="120" height="80" as="geometry" />
        </mxCell>
        <mxCell id="a7h6HVVB1dvzdbMrAwMY-11" value="" style="endArrow=none;html=1;rounded=0;entryX=0;entryY=0;entryDx=0;entryDy=0;exitX=0.5;exitY=0.5;exitDx=0;exitDy=0;exitPerimeter=0;" edge="1" parent="1" source="a7h6HVVB1dvzdbMrAwMY-1" target="a7h6HVVB1dvzdbMrAwMY-10">
          <mxGeometry width="50" height="50" relative="1" as="geometry">
            <mxPoint x="340" y="330" as="sourcePoint" />
            <mxPoint x="390" y="280" as="targetPoint" />
          </mxGeometry>
        </mxCell>
        <mxCell id="a7h6HVVB1dvzdbMrAwMY-12" value="5. Als de item niet optijd gehaald dan moet in 24u opgehaald" style="ellipse;whiteSpace=wrap;html=1;" vertex="1" parent="1">
          <mxGeometry x="400" y="400" width="120" height="80" as="geometry" />
        </mxCell>
        <mxCell id="a7h6HVVB1dvzdbMrAwMY-13" value="" style="endArrow=none;html=1;rounded=0;exitX=1;exitY=1;exitDx=0;exitDy=0;exitPerimeter=0;" edge="1" parent="1" source="a7h6HVVB1dvzdbMrAwMY-1" target="a7h6HVVB1dvzdbMrAwMY-12">
          <mxGeometry width="50" height="50" relative="1" as="geometry">
            <mxPoint x="200" y="360" as="sourcePoint" />
            <mxPoint x="250" y="310" as="targetPoint" />
          </mxGeometry>
        </mxCell>
        <mxCell id="a7h6HVVB1dvzdbMrAwMY-14" value="6. Docent moet de item breng na vervaldatum anders kan ie niet meer lenen" style="ellipse;whiteSpace=wrap;html=1;" vertex="1" parent="1">
          <mxGeometry x="400" y="490" width="120" height="80" as="geometry" />
        </mxCell>
        <mxCell id="a7h6HVVB1dvzdbMrAwMY-15" value="" style="endArrow=none;html=1;rounded=0;entryX=0;entryY=0;entryDx=0;entryDy=0;exitX=1;exitY=1;exitDx=0;exitDy=0;exitPerimeter=0;" edge="1" parent="1" source="a7h6HVVB1dvzdbMrAwMY-1" target="a7h6HVVB1dvzdbMrAwMY-14">
          <mxGeometry width="50" height="50" relative="1" as="geometry">
            <mxPoint x="150" y="460" as="sourcePoint" />
            <mxPoint x="200" y="410" as="targetPoint" />
          </mxGeometry>
        </mxCell>
      </root>
    </mxGraphModel>
  </diagram>
</mxfile>
